HIERARCHY
ROOT Hips
{
	OFFSET 0.000000 0.000000 0.000000
	CHANNELS 6 Xposition Yposition Zposition Xrotation Yrotation Zrotation
	JOINT LeftUpLeg_virtual
	{
		OFFSET 0.000000 0.000000 0.000000
		CHANNELS 3 Xrotation Yrotation Zrotation
		JOINT LeftUpLeg
		{
			OFFSET 15.427100 -6.655098 0.678600
			CHANNELS 3 Xrotation Yrotation Zrotation
			JOINT LeftLeg
			{
				OFFSET 4.081073 -39.591068 13.024000
				CHANNELS 3 Xrotation Yrotation Zrotation
				JOINT LeftFoot
				{
					OFFSET -4.081074 -37.707932 -15.979700
					CHANNELS 3 Xrotation Yrotation Zrotation
					JOINT LeftToeBase
					{
						OFFSET 5.346399 -15.068900 20.645000
						CHANNELS 3 Xrotation Yrotation Zrotation
						JOINT LeftToe_End
						{
							OFFSET 2.754700 0.931300 11.300900
							CHANNELS 3 Xrotation Yrotation Zrotation
							End Site
							{
								OFFSET 0 0 0
							}
						}
					}
				}
			}
		}
	}
	JOINT RightUpLeg_virtual
	{
		OFFSET 0.000000 0.000000 0.000000
		CHANNELS 3 Xrotation Yrotation Zrotation
		JOINT RightUpLeg
		{
			OFFSET -15.569500 -6.655098 0.678600
			CHANNELS 3 Xrotation Yrotation Zrotation
			JOINT RightLeg
			{
				OFFSET -4.081825 -39.591045 13.023800
				CHANNELS 3 Xrotation Yrotation Zrotation
				JOINT RightFoot
				{
					OFFSET 4.081824 -37.707954 -15.979600
					CHANNELS 3 Xrotation Yrotation Zrotation
					JOINT RightToeBase
					{
						OFFSET -5.346400 -15.068900 20.645000
						CHANNELS 3 Xrotation Yrotation Zrotation
						JOINT RightToe_End
						{
							OFFSET -2.754700 0.931300 11.300900
							CHANNELS 3 Xrotation Yrotation Zrotation
							End Site
							{
								OFFSET 0 0 0
							}
						}
					}
				}
			}
		}
	}
	JOINT Spine_virtual
	{
		OFFSET 0.000000 0.000000 0.000000
		CHANNELS 3 Xrotation Yrotation Zrotation
		JOINT Spine
		{
			OFFSET -0.279200 12.230698 -2.892100
			CHANNELS 3 Xrotation Yrotation Zrotation
			JOINT Spine1
			{
				OFFSET -0.232667 10.192268 -1.242267
				CHANNELS 3 Xrotation Yrotation Zrotation
				JOINT Spine1_split
				{
					OFFSET -0.232667 10.192268 -1.242267
					CHANNELS 3 Xrotation Yrotation Zrotation
					JOINT Spine2
					{
						OFFSET -0.232667 10.192268 -1.242267
						CHANNELS 3 Xrotation Yrotation Zrotation
						JOINT Neck_virtual
						{
							OFFSET 0.000000 0.000000 0.000000
							CHANNELS 3 Xrotation Yrotation Zrotation
							JOINT Neck
							{
								OFFSET -0.418800 17.814194 8.416900
								CHANNELS 3 Xrotation Yrotation Zrotation
								JOINT Head
								{
									OFFSET 0.000000 7.031097 3.806800
									CHANNELS 3 Xrotation Yrotation Zrotation
									JOINT HeadTop_End
									{
										OFFSET 0.000000 24.646606 12.978600
										CHANNELS 3 Xrotation Yrotation Zrotation
										End Site
										{
											OFFSET 0 0 0
										}
									}
								}
							}
						}
						JOINT LeftShoulder_virtual
						{
							OFFSET 0.000000 0.000000 0.000000
							CHANNELS 3 Xrotation Yrotation Zrotation
							JOINT LeftShoulder
							{
								OFFSET 8.476499 7.247704 -3.868750
								CHANNELS 3 Xrotation Yrotation Zrotation
								JOINT LeftShoulder_split
								{
									OFFSET 8.476499 7.247704 -3.868750
									CHANNELS 3 Xrotation Yrotation Zrotation
									JOINT LeftArm
									{
										OFFSET 9.308998 -2.777710 0.208600
										CHANNELS 3 Xrotation Yrotation Zrotation
										JOINT LeftForeArm
										{
											OFFSET 29.972298 0.000000 0.000000
											CHANNELS 3 Xrotation Yrotation Zrotation
											JOINT LeftHand
											{
												OFFSET 26.026505 0.000000 0.000000
												CHANNELS 3 Xrotation Yrotation Zrotation
												End Site
												{
													OFFSET 0 0 0
												}
											}
										}
									}
								}
							}
						}
						JOINT RightShoulder_virtual
						{
							OFFSET 0.000000 0.000000 0.000000
							CHANNELS 3 Xrotation Yrotation Zrotation
							JOINT RightShoulder
							{
								OFFSET -7.570500 7.247704 -3.868750
								CHANNELS 3 Xrotation Yrotation Zrotation
								JOINT RightShoulder_split
								{
									OFFSET -7.570500 7.247704 -3.868750
									CHANNELS 3 Xrotation Yrotation Zrotation
									JOINT RightArm
									{
										OFFSET -9.308998 -2.777710 0.208500
										CHANNELS 3 Xrotation Yrotation Zrotation
										JOINT RightForeArm
										{
											OFFSET -29.972300 0.000000 0.000000
											CHANNELS 3 Xrotation Yrotation Zrotation
											JOINT RightHand
											{
												OFFSET -26.026505 0.000000 0.000000
												CHANNELS 3 Xrotation Yrotation Zrotation
												End Site
												{
													OFFSET 0 0 0
												}
											}
										}
									}
								}
							}
						}
					}
				}
			}
		}
	}
}
MOTION
Frames: 6
Frame Time: 0.03333333
0.102055 66.735962 4.163837 0.000000 0.000000 0.000000 -8.313808 -74.701888 -6.094953 -40.328196 11.922601 59.461667 40.007987 -5.140399 -4.675020 6.605298 -4.133730 -30.717096 -2.761764 0.491143 -0.501108 0.000000 0.000000 0.000000 -10.403513 -74.112299 -7.507938 -31.359799 4.708398 -38.926351 59.086826 14.254691 -4.439979 -20.846432 -7.843257 25.222096 2.660684 0.845371 0.482506 0.000000 0.000000 0.000000 -10.198366 -75.283212 -7.805249 5.416816 -1.552294 -1.155955 2.994534 -0.390085 -3.298544 0.175421 -1.589239 0.728085 0.000000 0.000000 0.000000 6.318620 0.109328 -3.075882 -4.153128 21.691919 7.154612 1.283337 22.815958 -10.329053 0.000000 0.000000 0.000000 5.875449 -0.211377 -3.251653 0.733535 -6.033379 -17.273495 0.540481 -0.772789 -1.742318 -44.360491 -24.790959 -6.042129 -7.291562 -28.900545 -5.787601 0.000000 0.000000 0.000000 4.333433 -0.246172 -3.069797 3.790687 17.272008 3.476469 7.450692 4.410120 2.580866 16.782357 73.064733 -5.693197 107.406480 85.413667 -118.309094 0.000000 0.000000 0.000000 
0.084266 67.074478 4.047094 0.000000 0.000000 0.000000 -9.719112 -74.934443 -7.937467 -39.426864 11.568548 59.594951 39.918877 -5.193331 -4.676464 6.598327 -3.739783 -30.596464 -2.719672 0.415095 -0.338236 0.000000 0.000000 0.000000 -11.754671 -74.403689 -9.126869 -31.583560 4.998790 -38.452203 57.654030 14.467058 -3.923149 -20.258756 -7.696296 25.573569 2.289263 0.949565 0.473487 0.000000 0.000000 0.000000 -11.289714 -75.654604 -9.304633 4.862849 -1.454084 -1.000364 2.746436 -0.384131 -3.261883 -0.201469 -1.546343 0.814496 0.000000 0.000000 0.000000 6.072491 0.012499 -2.994873 -3.853894 21.777186 7.122227 1.800074 23.130979 -10.708085 0.000000 0.000000 0.000000 5.508145 -0.217312 -3.169634 0.681681 -5.997704 -17.449730 0.472525 0.331741 -2.625221 -44.405423 -24.675580 -6.559793 -6.968466 -30.391432 -5.309972 0.000000 0.000000 0.000000 4.148500 -0.267132 -3.076601 3.726749 17.159445 3.503008 7.736839 2.607874 2.306516 16.229146 72.438671 -4.229767 90.588826 86.170240 -101.404260 0.000000 0.000000 0.000000 
0.297053 67.744392 3.802740 0.000000 0.000000 0.000000 -13.167718 -75.728507 -11.964835 -37.303980 11.529831 59.572917 38.541887 -4.848717 -4.907637 6.560619 -2.750413 -29.977038 -3.001716 0.246065 -0.058017 0.000000 0.000000 0.000000 -14.590992 -75.220580 -12.408117 -32.281936 5.369903 -37.885939 55.519281 14.927305 -3.067472 -18.473307 -6.494429 26.157785 2.647014 1.027297 0.716977 0.000000 0.000000 0.000000 -14.283972 -76.355532 -12.876061 4.330884 -0.955241 -0.457548 2.807909 -0.381370 -3.052789 -0.232934 -1.913188 0.678435 0.000000 0.000000 0.000000 6.100515 -0.072938 -2.797182 -4.002274 21.919860 7.180143 2.363390 24.054297 -11.128529 0.000000 0.000000 0.000000 5.324576 -0.243403 -2.930560 0.364299 -6.221980 -17.874236 -0.235872 1.144668 -2.970118 -41.994489 -23.470975 -7.656430 -6.473745 -32.467403 -5.025493 0.000000 0.000000 0.000000 4.163350 -0.259324 -2.893276 3.623240 16.382313 3.992578 6.757156 1.864711 1.977637 14.901864 69.832114 -0.851611 50.491132 85.868763 -60.931230 0.000000 0.000000 0.000000 
0.610090 68.630402 3.557692 0.000000 0.000000 0.000000 -18.604568 -76.897241 -17.950750 -34.357535 11.759790 59.394676 36.509297 -4.168682 -5.361371 6.606313 -1.493443 -29.012263 -3.507537 0.013996 0.267099 0.000000 0.000000 0.000000 -18.454008 -75.993477 -16.773170 -33.033271 5.733768 -37.251104 53.349112 15.261470 -2.078381 -16.103221 -4.785756 26.733920 3.510364 1.078511 1.205371 0.000000 0.000000 0.000000 -18.515215 -76.850475 -17.671327 3.991130 -0.180063 0.322264 3.129572 -0.407506 -2.695898 0.162315 -2.511403 0.833944 0.000000 0.000000 0.000000 6.223713 -0.151953 -2.530744 -4.506570 22.026486 7.296478 2.978257 25.465479 -11.571142 0.000000 0.000000 0.000000 5.384952 -0.308928 -2.605887 -0.095552 -6.888104 -18.656110 -0.888838 1.553188 -2.891206 -36.952549 -21.824527 -9.363848 -5.828116 -35.824779 -4.875811 0.000000 0.000000 0.000000 4.368930 -0.235246 -2.571821 3.540512 15.195935 4.909746 5.010399 2.236192 1.588277 13.474974 65.712294 3.837006 23.342288 83.656929 -33.047184 0.000000 0.000000 0.000000 
0.924187 69.619690 3.460915 0.000000 0.000000 0.000000 -24.743689 -77.869225 -24.443753 -31.071272 12.070097 59.055346 34.563387 -3.322394 -5.961985 6.713105 -0.387060 -28.024469 -4.078840 -0.229026 0.644358 0.000000 0.000000 0.000000 -21.841239 -76.057995 -20.544675 -33.195542 5.869504 -36.531246 51.317031 15.011122 -1.310615 -13.745996 -3.446347 27.104281 3.801646 1.069834 1.817066 0.000000 0.000000 0.000000 -22.953974 -76.892753 -22.467778 3.975200 0.639849 1.138215 3.569232 -0.500942 -2.226869 0.442297 -2.868866 1.292355 0.000000 0.000000 0.000000 6.271764 -0.261234 -2.219400 -5.159026 22.138948 7.439265 3.655694 27.012693 -11.965043 0.000000 0.000000 0.000000 5.650569 -0.452979 -2.253291 -0.608588 -8.025072 -19.768898 -0.579617 1.635088 -2.592030 -29.146248 -20.563398 -11.259501 -5.002055 -41.138807 -4.654400 0.000000 0.000000 0.000000 4.686269 -0.235723 -2.151324 3.415340 13.720118 6.282304 3.133479 3.242637 1.161024 12.438806 60.780282 8.896078 11.159143 80.268916 -19.758895 0.000000 0.000000 0.000000 
1.235548 70.500793 3.448519 0.000000 0.000000 0.000000 -28.882329 -78.107475 -28.647680 -27.942522 12.070443 58.480838 33.033083 -2.378803 -6.585317 6.813161 0.232204 -27.315687 -4.522560 -0.445591 1.099608 0.000000 0.000000 0.000000 -22.881489 -75.248652 -21.755860 -32.241532 5.835394 -35.818397 49.505542 14.060279 -1.148487 -11.890806 -3.042118 27.324074 3.180739 0.976520 2.381767 0.000000 0.000000 0.000000 -25.888946 -76.392060 -25.366505 4.276494 1.299368 1.789028 4.006893 -0.703979 -1.680404 0.373592 -2.982831 1.501441 0.000000 0.000000 0.000000 6.149624 -0.444148 -1.856250 -5.649620 22.288618 7.550353 4.256982 28.554902 -12.290684 0.000000 0.000000 0.000000 6.044724 -0.705234 -1.897199 -1.039163 -9.499606 -20.873311 -0.357966 1.380997 -2.378159 -19.662687 -21.196466 -12.572628 -3.940071 -48.593589 -4.132995 0.000000 0.000000 0.000000 5.025132 -0.312195 -1.642053 3.199976 12.204115 8.150580 1.312940 3.772081 0.585416 11.941653 55.883044 13.539636 5.614433 75.591630 -12.771770 0.000000 0.000000 0.000000 
